<svg fill="none" viewBox="0 0 1024 1024" height="1024" width="1024" xmlns="http://www.w3.org/2000/svg">
  
  
  

  
  <path fill="rgb(61,42,22)" d="M 520.65 691.00 C518.69,708.33 516.94,724.53 516.76,727.00 C516.36,732.56 515.85,730.85 513.47,716.00 C507.14,676.47 490.44,615.97 476.37,581.58 C456.61,533.30 432.36,503.71 390.22,476.50 C353.29,452.65 350.51,450.63 339.94,440.06 C324.92,425.03 318.69,413.45 316.00,395.56 C311.40,364.96 330.05,336.17 364.72,320.37 C382.29,312.36 404.58,308.38 426.84,309.28 C439.56,309.79 453.90,311.87 459.57,314.03 L 462.00 314.95 L 461.91 340.73 C461.83,363.37 461.67,365.94 460.56,361.91 C455.32,342.93 438.47,328.69 418.00,325.96 C393.11,322.64 369.49,332.50 359.94,350.19 C356.75,356.10 356.53,357.11 356.52,366.02 C356.50,374.81 356.76,376.05 359.86,382.36 C366.23,395.30 373.75,401.48 417.98,430.08 C459.00,456.60 481.60,485.66 499.55,534.97 C511.11,566.72 524.05,627.45 524.17,650.50 C524.19,655.45 522.61,673.67 520.65,691.00 ZM 562.78 500.50 C558.92,510.95 554.48,523.33 552.92,528.00 L 550.08 536.50 L 550.04 389.25 C550.02,308.26 550.34,242.00 550.76,242.00 C551.18,242.00 560.85,251.34 572.26,262.76 L 593.00 283.52 L 593.00 347.76 C593.00,383.09 593.21,412.00 593.46,412.00 C593.71,412.00 595.51,410.92 597.46,409.59 C602.88,405.91 614.63,401.35 623.21,399.58 C634.29,397.31 635.08,397.58 628.62,401.47 C614.58,409.93 602.01,422.20 591.82,437.43 C582.20,451.81 575.00,467.44 562.78,500.50 ZM 475.77 627.24 C479.22,637.31 479.54,640.87 476.45,634.90 C473.83,629.83 455.63,611.68 447.65,606.18 C432.91,596.02 419.36,590.61 390.88,583.51 C356.67,574.98 341.21,567.52 326.38,552.40 C311.19,536.91 303.44,511.19 308.35,492.50 L 309.67 487.50 L 310.42 492.43 C313.77,514.30 328.10,532.48 351.05,544.03 C360.62,548.84 367.07,551.02 388.02,556.53 C417.28,564.23 428.70,569.30 443.27,581.03 C458.56,593.35 469.49,608.89 475.77,627.24 Z"></path>

  
  <path fill="rgb(202,155,73)" d="M 526.03 570.71 C526.65,579.08 526.95,586.73 526.70,587.71 C526.44,588.70 526.18,589.22 526.12,588.88 C517.11,540.56 511.23,520.70 497.90,493.48 C485.16,467.47 469.44,448.08 449.01,433.18 C438.97,425.86 438.89,425.77 444.62,427.86 C455.47,431.83 473.59,442.58 478.42,447.91 C479.46,449.06 480.69,450.00 481.15,450.00 C481.62,450.00 482.00,398.81 482.00,336.24 L 482.00 222.49 L 537.00 167.51 L 536.98 357.01 C536.97,533.01 536.67,557.73 534.30,576.50 L 533.55 582.50 L 532.89 573.00 C532.52,567.78 532.16,497.58 532.09,417.00 L 531.96 270.50 L 527.60 275.48 L 523.25 280.45 L 523.13 350.98 C522.99,436.43 524.49,549.90 526.03,570.71 ZM 520.65 691.00 C522.61,673.67 524.19,655.45 524.17,650.50 C524.15,646.94 523.83,642.48 523.25,637.37 C523.94,641.75 524.51,645.13 524.72,646.00 C525.25,648.22 525.37,648.28 525.76,646.50 C528.88,632.48 559.59,546.92 577.98,501.00 C594.54,459.67 603.99,442.90 619.45,427.46 C638.19,408.73 657.89,399.40 681.00,398.30 C693.00,397.73 705.05,399.48 714.50,403.16 L 720.50 405.50 L 709.50 406.09 C688.92,407.20 675.25,412.92 661.39,426.22 C647.35,439.70 642.38,448.75 625.38,491.74 C619.67,506.18 615.00,518.20 615.00,518.45 C615.00,519.21 583.99,597.47 577.71,612.56 C572.99,623.90 573.15,624.08 581.13,616.45 C597.33,600.96 609.17,593.46 646.51,575.01 C677.92,559.50 685.06,555.08 696.35,544.14 C704.86,535.89 709.97,529.12 715.60,518.64 C720.52,509.46 720.84,509.91 717.96,522.00 C713.37,541.27 706.48,554.16 693.85,567.12 C680.69,580.63 673.15,585.53 640.00,602.08 C625.97,609.08 610.45,617.47 605.50,620.72 C579.91,637.54 556.20,662.66 539.18,690.98 C535.70,696.77 529.12,709.04 524.55,718.25 C516.01,735.47 515.05,736.37 515.01,727.20 C515.01,726.38 514.93,725.26 514.78,723.87 C516.07,731.25 516.45,731.36 516.76,727.00 C516.94,724.53 518.69,708.33 520.65,691.00 ZM 512.40 728.25 C513.25,731.89 512.72,731.72 510.81,727.75 C507.78,721.42 496.71,704.41 491.38,697.87 C483.05,687.66 464.48,670.22 454.26,663.00 C440.75,653.46 424.83,644.13 404.50,633.85 C380.94,621.92 369.28,615.09 359.50,607.47 C350.23,600.25 339.43,589.49 334.38,582.43 C330.63,577.19 324.00,566.27 324.00,565.33 C324.00,565.02 325.84,566.43 328.10,568.47 C340.30,579.50 358.39,588.56 390.00,599.51 C426.11,612.01 442.83,621.35 462.23,639.85 C477.01,653.95 488.75,670.33 498.53,690.50 C503.92,701.63 510.11,718.47 512.40,728.25 ZM 476.37 581.58 C477.31,583.88 478.26,586.30 479.22,588.81 C460.83,541.28 439.02,511.96 405.40,486.99 C438.43,511.51 459.11,539.41 476.37,581.58 ZM 516.59 598.08 C513.32,582.47 509.30,566.19 505.17,552.21 C509.48,566.37 513.31,581.70 516.59,598.08 ZM 468.15 474.92 C454.99,457.76 438.88,443.59 417.98,430.08 C439.72,444.13 455.10,457.79 468.15,474.92 ZM 482.69 497.22 C480.68,493.60 478.60,490.10 476.43,486.72 C478.57,490.04 480.66,493.54 482.69,497.22 Z"></path>
</svg>
